<svg xmlns="http://www.w3.org/2000/svg" width="800" height="1000" viewBox="0 0 800 1000" fill="none"><g clip-path="url(#clip0_639_2)"><path d="M800 0H0V1000H800V0Z" fill="#EFF1F3"></path><path d="M586.142 701.082C551.784 688.228 512.633 668.216 512.633 642.321C512.633 625.178 512.633 603.758 512.633 574.377C525.214 539.503 544.121 537.007 553.576 483.48C575.613 475.605 588.208 463.008 603.945 407.905C615.767 366.428 598.349 355.297 587.073 352.328C587.304 350.118 587.534 347.893 587.719 345.284C591.979 283.165 628.046 98.7758 503.177 76.7394C470.124 51.0308 449.151 39.3814 378.308 43.6865C333.464 43.6721 299.377 53.5718 251.877 40C188.495 93.1669 205.91 267.773 214.777 352.013C203.63 354.509 184.406 364.868 196.701 407.905C212.425 463.006 225.021 475.604 247.055 483.48C256.511 537.007 285.273 554.193 287.368 574.377C287.368 603.758 287.368 625.176 287.368 642.321C287.368 668.216 245.118 690.066 213.859 701.082C153.736 722.272 -13.771 784.993 0.90679 960.732H799.095C813.771 784.993 645.849 723.419 586.142 701.082Z" fill="#B4BDC6"></path><path d="M800 0H0V1000H800V0Z" fill="#EFF1F3"></path><path fill-rule="evenodd" clip-rule="evenodd" d="M225 359.377C225.067 349.815 232.797 342.076 242.36 342H557.64C567.23 342 575 349.787 575 359.377V639.623C574.933 649.185 567.203 656.924 557.64 657H242.36C232.77 656.991 225 649.213 225 639.623V359.377ZM540.002 377.001H260.002V622.001L422.612 459.355C429.446 452.524 440.523 452.524 447.357 459.355L540.002 552.175V377.001ZM294.998 446.999C294.998 466.329 310.668 481.999 329.998 481.999C349.328 481.999 364.998 466.329 364.998 446.999C364.998 427.669 349.328 411.999 329.998 411.999C310.668 411.999 294.998 427.669 294.998 446.999Z" fill="#B4BDC6"></path></g><defs><clipPath id="clip0_639_2"><rect width="800" height="1000" fill="white"></rect></clipPath></defs></svg>